<svg width="22" height="23" viewBox="0 0 22 23" fill="none" xmlns="http://www.w3.org/2000/svg">
<path d="M21.5992 9.6105L18.7724 9.1275C18.6069 8.5345 18.3807 7.9645 18.0975 7.425L19.7477 4.9665C19.8811 4.768 19.8582 4.4975 19.6941 4.3255L17.834 2.382C17.668 2.209 17.4069 2.1865 17.2165 2.33L14.9001 4.0705C14.3792 3.7695 13.8292 3.5305 13.2585 3.357L12.7654 0.414C12.7252 0.175 12.5267 0 12.2943 0H9.66362C9.42925 0 9.22932 0.1775 9.19154 0.4195L8.73428 3.3465C8.16032 3.519 7.60931 3.7555 7.09036 4.0525L4.78015 2.3275C4.58931 2.185 4.32959 2.208 4.16362 2.3805L2.30446 4.324C2.1404 4.4955 2.11744 4.7655 2.25089 4.964L3.87664 7.3955C3.58727 7.943 3.35673 8.5225 3.18884 9.1255L0.399861 9.611C0.169319 9.651 0 9.86 0 10.104V12.854C0 13.0965 0.166449 13.304 0.394599 13.3465L3.18358 13.8635C3.35051 14.465 3.58105 15.0445 3.87138 15.5935L2.22554 18C2.0897 18.1985 2.11123 18.471 2.27624 18.6445L4.13588 20.59C4.29994 20.7615 4.5587 20.7855 4.74859 20.646L7.07792 18.9405C7.6007 19.241 8.15314 19.4795 8.72567 19.6525L9.19249 22.583C9.23028 22.8235 9.42973 23 9.66362 23H12.2943C12.5263 23 12.7248 22.826 12.7649 22.5875L13.2648 19.6425C13.8382 19.466 14.3878 19.226 14.9053 18.925L17.2514 20.6455C17.4418 20.786 17.7001 20.7615 17.8646 20.59L19.7242 18.6445C19.8897 18.471 19.9113 18.1975 19.774 17.9985L18.1009 15.57C18.3845 15.03 18.6098 14.459 18.7738 13.866L21.6044 13.3465C21.8336 13.3045 22 13.0965 22 12.854V10.104C22.0005 9.859 21.8307 9.65 21.5992 9.6105ZM11 15C9.15088 15 7.65188 13.433 7.65188 11.5C7.65188 9.567 9.15088 8 11 8C12.8491 8 14.3481 9.567 14.3481 11.5C14.3481 13.433 12.8491 15 11 15Z" fill="white"/>
</svg>
