<svg width="18" height="23" viewBox="0 0 18 23" fill="none" xmlns="http://www.w3.org/2000/svg">
<path d="M17.1669 2.76497H17.1618C17.1621 2.75192 17.1658 2.73968 17.1658 2.72636C17.1658 1.95611 16.5341 1.3299 15.7544 1.3299C15.7436 1.3299 15.7339 1.33283 15.7232 1.3331H11.8026V0.427325V0.426793C11.8026 0.19223 11.6103 0.00266244 11.3736 0.00212994V0H6.40515V0.00159749C6.40112 0.00159749 6.39761 0.000532454 6.39357 0.000532454C6.15658 0.000532454 5.9643 0.190366 5.9643 0.424929C5.9643 0.427592 5.96511 0.430254 5.96511 0.432917V1.33283H2.01572C2.01384 1.33283 2.01222 1.3323 2.01034 1.3323C1.23123 1.3323 0.598633 1.95904 0.598633 2.72823C0.598633 2.74074 0.602134 2.75219 0.602403 2.7647H0.598633V21.5542H0.599441C0.599441 21.5566 0.598633 21.559 0.598633 21.5614C0.598633 22.3322 1.2315 22.956 2.01061 22.956C2.03161 22.956 2.05127 22.9507 2.07228 22.9499V22.9555H15.6723C15.6987 22.9568 15.7237 22.9632 15.7504 22.9632C16.5297 22.9632 17.1613 22.3381 17.1613 21.5686C17.1613 21.5636 17.1599 21.559 17.1599 21.554H17.1675V2.76497H17.1669ZM14.4903 20.3173H3.27527V3.97612H4.621V4.79323C4.62046 4.80202 4.61831 4.81001 4.61831 4.81906C4.61831 5.08477 4.83644 5.30203 5.10683 5.30203C5.10817 5.30203 5.10925 5.30176 5.1106 5.30176V5.30389H12.6585C12.9291 5.30336 13.1467 5.08664 13.1467 4.82119C13.1467 4.8172 13.1456 4.81347 13.1456 4.80947V3.97612H14.49L14.4903 20.3173Z" fill="white"/>
<path d="M5.96071 9.11736C5.96071 8.94217 5.81609 8.79919 5.63808 8.79919C5.62973 8.79919 5.62246 8.80319 5.61438 8.80399V8.79919H4.94057C4.76256 8.79919 4.61768 8.9427 4.61768 9.11789V9.8088V9.80933C4.61768 9.98399 4.76229 10.127 4.94057 10.127H5.61465V10.1222C5.62273 10.1227 5.62973 10.127 5.63781 10.127C5.81636 10.127 5.96098 9.98399 5.96098 9.80933V9.8088V9.11789L5.96071 9.11736Z" fill="white"/>
<path d="M13.1463 9.11736C13.1463 8.94217 13.0017 8.79919 12.8236 8.79919C12.8234 8.79919 12.8234 8.79919 12.8231 8.79919H7.6271C7.44909 8.79919 7.3042 8.9427 7.3042 9.11789V9.8088V9.80933C7.3042 9.98399 7.44882 10.127 7.6271 10.127H12.8234C13.0019 10.127 13.1465 9.98399 13.1465 9.80933V9.8088V9.11789L13.1463 9.11736Z" fill="white"/>
<path d="M5.96071 11.7731C5.96071 11.5979 5.81609 11.455 5.63808 11.455C5.62973 11.455 5.62246 11.459 5.61438 11.4597V11.455H4.94057C4.76256 11.455 4.61768 11.5985 4.61768 11.7737V12.4646V12.4651C4.61768 12.6398 4.76229 12.7827 4.94057 12.7827H5.61465V12.7779C5.62273 12.7785 5.62973 12.7827 5.63781 12.7827C5.81636 12.7827 5.96098 12.6398 5.96098 12.4651V12.4646V11.7737L5.96071 11.7731Z" fill="white"/>
<path d="M13.1463 11.7731C13.1463 11.5979 13.0017 11.455 12.8236 11.455C12.8234 11.455 12.8234 11.455 12.8231 11.455H7.6271C7.44909 11.455 7.3042 11.5985 7.3042 11.7737V12.4646V12.4651C7.3042 12.6398 7.44882 12.7827 7.6271 12.7827H12.8234C13.0019 12.7827 13.1465 12.6398 13.1465 12.4651V12.4646V11.7737L13.1463 11.7731Z" fill="white"/>
<path d="M5.96071 14.4289C5.96071 14.2537 5.81609 14.1107 5.63808 14.1107C5.62973 14.1107 5.62246 14.1147 5.61438 14.1155V14.1107H4.94057C4.76256 14.1107 4.61768 14.2542 4.61768 14.4294V15.1203V15.1209C4.61768 15.2955 4.76229 15.4385 4.94057 15.4385H5.61465V15.4337C5.62273 15.4342 5.62973 15.4385 5.63781 15.4385C5.81636 15.4385 5.96098 15.2955 5.96098 15.1209V15.1203V14.4294L5.96071 14.4289Z" fill="white"/>
<path d="M13.1463 14.4289C13.1463 14.2537 13.0017 14.1107 12.8236 14.1107C12.8234 14.1107 12.8234 14.1107 12.8231 14.1107H7.6271C7.44909 14.1107 7.3042 14.2542 7.3042 14.4294V15.1203V15.1209C7.3042 15.2955 7.44882 15.4385 7.6271 15.4385H12.8234C13.0019 15.4385 13.1465 15.2955 13.1465 15.1209V15.1203V14.4294L13.1463 14.4289Z" fill="white"/>
</svg>
