<svg width="25" height="23" viewBox="0 0 25 23" fill="none" xmlns="http://www.w3.org/2000/svg">
<path d="M24.0461 9.8684L20.94 9.41711C20.7582 8.86305 20.5096 8.33047 20.1984 7.82639L22.0116 5.52931C22.1583 5.34384 22.133 5.0911 21.9528 4.9304L19.9088 3.1145C19.7265 2.95286 19.4395 2.93183 19.2303 3.06591L16.685 4.69214C16.1127 4.4109 15.5083 4.18759 14.8812 4.02548L14.3394 1.27571C14.2952 1.0524 14.0771 0.888893 13.8217 0.888893H10.9311C10.6735 0.888893 10.4539 1.05474 10.4123 1.28085L9.9099 4.01567C9.27922 4.17685 8.67376 4.39782 8.10352 4.67532L5.56503 3.06358C5.35533 2.93043 5.06994 2.95192 4.88757 3.1131L2.84469 4.92899C2.66442 5.08923 2.63919 5.34151 2.78582 5.52697L4.57223 7.79883C4.25426 8.31038 4.00094 8.85183 3.81646 9.41524L0.751875 9.86887C0.498551 9.90624 0.3125 10.1015 0.3125 10.3295V12.8989C0.3125 13.1255 0.495398 13.3194 0.746094 13.3591L3.81068 13.8422C3.99411 14.4042 4.24743 14.9456 4.56645 15.4586L2.75797 17.7071C2.60871 17.8925 2.63236 18.1472 2.81368 18.3093L4.85709 20.127C5.03736 20.2873 5.32169 20.3097 5.53034 20.1793L8.08986 18.5858C8.6643 18.8666 9.27133 19.0894 9.90044 19.2511L10.4134 21.9892C10.4549 22.2139 10.6741 22.3788 10.9311 22.3788H13.8217C14.0766 22.3788 14.2947 22.2162 14.3389 21.9934L14.8881 19.2417C15.5182 19.0768 16.1221 18.8526 16.6908 18.5713L19.2687 20.1789C19.4779 20.3102 19.7617 20.2873 19.9425 20.127L21.9859 18.3093C22.1677 18.1472 22.1914 17.8916 22.0405 17.7057L20.2021 15.4366C20.5138 14.9321 20.7613 14.3986 20.9416 13.8445L24.0519 13.3591C24.3036 13.3199 24.4865 13.1255 24.4865 12.8989V10.3295C24.4871 10.1006 24.3005 9.90531 24.0461 9.8684ZM12.3995 14.904C10.3677 14.904 8.72054 13.4399 8.72054 11.6338C8.72054 9.82776 10.3677 8.36364 12.3995 8.36364C14.4314 8.36364 16.0785 9.82776 16.0785 11.6338C16.0785 13.4399 14.4314 14.904 12.3995 14.904Z" fill="#26567C"/>
</svg>
