<svg width="21" height="26" viewBox="0 0 21 26" fill="none" xmlns="http://www.w3.org/2000/svg">
<path d="M20.521 3.77062H20.5148C20.5151 3.75645 20.5197 3.74314 20.5197 3.72868C20.5197 2.89182 19.7562 2.21146 18.8141 2.21146C18.8011 2.21146 18.7894 2.21464 18.7764 2.21493H14.0388V1.23084V1.23026C14.0388 0.975412 13.8064 0.769452 13.5204 0.768874V0.76656H7.51656V0.768295C7.51168 0.768295 7.50745 0.767138 7.50256 0.767138C7.21619 0.767138 6.98383 0.973387 6.98383 1.22823C6.98383 1.23113 6.98481 1.23402 6.98481 1.23691V2.21464H2.2124C2.21012 2.21464 2.20817 2.21406 2.20589 2.21406C1.26443 2.21406 0.5 2.895 0.5 3.7307C0.5 3.7443 0.504231 3.75674 0.504556 3.77033H0.5V24.1847H0.500976C0.500976 24.1873 0.5 24.1899 0.5 24.1925C0.5 25.0299 1.26476 25.7077 2.20622 25.7077C2.2316 25.7077 2.25536 25.7019 2.28074 25.701V25.7071H18.7149C18.7468 25.7085 18.777 25.7155 18.8092 25.7155C19.751 25.7155 20.5142 25.0363 20.5142 24.2003C20.5142 24.1948 20.5125 24.1899 20.5125 24.1844H20.5216V3.77062H20.521ZM17.2866 22.8407H3.73443V5.08651H5.3606V5.97428C5.35994 5.98382 5.35734 5.9925 5.35734 6.00234C5.35734 6.29103 5.62094 6.52707 5.94767 6.52707C5.9493 6.52707 5.9506 6.52678 5.95222 6.52678V6.5291H15.073C15.4001 6.52852 15.663 6.29305 15.663 6.00465C15.663 6.00031 15.6617 5.99626 15.6617 5.99192V5.08651H17.2862L17.2866 22.8407Z" fill="#26567C"/>
<path d="M6.97985 10.6723C6.97985 10.482 6.80509 10.3266 6.58998 10.3266C6.57989 10.3266 6.57111 10.331 6.56134 10.3318V10.3266H5.74712C5.53201 10.3266 5.35693 10.4825 5.35693 10.6729V11.4235V11.4241C5.35693 11.6139 5.53169 11.7692 5.74712 11.7692H6.56167V11.764C6.57143 11.7646 6.57989 11.7692 6.58966 11.7692C6.80542 11.7692 6.98017 11.6139 6.98017 11.4241V11.4235V10.6729L6.97985 10.6723Z" fill="#26567C"/>
<path d="M15.6628 10.6723C15.6628 10.482 15.488 10.3266 15.2729 10.3266C15.2726 10.3266 15.2726 10.3266 15.2723 10.3266H8.99346C8.77835 10.3266 8.60327 10.4825 8.60327 10.6729V11.4235V11.4241C8.60327 11.6139 8.77803 11.7692 8.99346 11.7692H15.2726C15.4884 11.7692 15.6631 11.6139 15.6631 11.4241V11.4235V10.6729L15.6628 10.6723Z" fill="#26567C"/>
<path d="M6.97985 13.5578C6.97985 13.3674 6.80509 13.2121 6.58998 13.2121C6.57989 13.2121 6.57111 13.2164 6.56134 13.2173V13.2121H5.74712C5.53201 13.2121 5.35693 13.368 5.35693 13.5584V14.309V14.3096C5.35693 14.4993 5.53169 14.6547 5.74712 14.6547H6.56167V14.6495C6.57143 14.6501 6.57989 14.6547 6.58966 14.6547C6.80542 14.6547 6.98017 14.4993 6.98017 14.3096V14.309V13.5584L6.97985 13.5578Z" fill="#26567C"/>
<path d="M15.6628 13.5578C15.6628 13.3674 15.488 13.2121 15.2729 13.2121C15.2726 13.2121 15.2726 13.2121 15.2723 13.2121H8.99346C8.77835 13.2121 8.60327 13.368 8.60327 13.5584V14.309V14.3096C8.60327 14.4993 8.77803 14.6547 8.99346 14.6547H15.2726C15.4884 14.6547 15.6631 14.4993 15.6631 14.3096V14.309V13.5584L15.6628 13.5578Z" fill="#26567C"/>
<path d="M6.97985 16.4432C6.97985 16.2529 6.80509 16.0976 6.58998 16.0976C6.57989 16.0976 6.57111 16.1019 6.56134 16.1028V16.0976H5.74712C5.53201 16.0976 5.35693 16.2535 5.35693 16.4438V17.1945V17.195C5.35693 17.3848 5.53169 17.5401 5.74712 17.5401H6.56167V17.5349C6.57143 17.5355 6.57989 17.5401 6.58966 17.5401C6.80542 17.5401 6.98017 17.3848 6.98017 17.195V17.1945V16.4438L6.97985 16.4432Z" fill="#26567C"/>
<path d="M15.6628 16.4432C15.6628 16.2529 15.488 16.0976 15.2729 16.0976C15.2726 16.0976 15.2726 16.0976 15.2723 16.0976H8.99346C8.77835 16.0976 8.60327 16.2535 8.60327 16.4438V17.1945V17.195C8.60327 17.3848 8.77803 17.5401 8.99346 17.5401H15.2726C15.4884 17.5401 15.6631 17.3848 15.6631 17.195V17.1945V16.4438L15.6628 16.4432Z" fill="#26567C"/>
</svg>
