<svg width="76" height="76" viewBox="0 0 76 76" fill="none" xmlns="http://www.w3.org/2000/svg">
<path d="M56.0559 47.7561L46.2979 37.9991L56.0529 28.2431C56.4569 27.8391 56.4569 27.1831 56.0529 26.7791L49.2199 19.9441C48.8149 19.5401 48.1599 19.5401 47.7559 19.9441L37.9989 29.7001L28.2439 19.9441C27.8559 19.5561 27.1689 19.5561 26.7799 19.9441L19.9449 26.7791C19.7509 26.9741 19.6409 27.2371 19.6409 27.5111C19.6409 27.7851 19.7509 28.0491 19.9449 28.2431L29.7009 37.9991L19.9429 47.7571C19.7489 47.9501 19.6389 48.2151 19.6389 48.4891C19.6389 48.7621 19.7489 49.0271 19.9429 49.2201L26.7759 56.0541C26.9699 56.2481 27.2349 56.3581 27.5089 56.3581C27.7829 56.3581 28.0469 56.2481 28.2399 56.0541L37.9969 46.2971L47.7549 56.0531C47.9569 56.2561 48.2209 56.3571 48.4869 56.3571C48.7529 56.3571 49.0169 56.2561 49.2189 56.0531L56.0539 49.2191C56.4599 48.8161 56.4599 48.1601 56.0559 47.7561Z" fill="#26567C"/>
<path d="M38 10.44C53.196 10.44 65.56 22.807 65.56 38.002C65.56 53.199 53.196 65.561 38 65.561C22.804 65.561 10.44 53.199 10.44 38.002C10.44 22.807 22.804 10.44 38 10.44ZM38 0.5C17.29 0.5 0.5 17.293 0.5 38.002C0.5 58.712 17.29 75.5 38 75.5C58.709 75.5 75.5 58.712 75.5 38.002C75.5 17.293 58.709 0.5 38 0.5Z" fill="#26567C"/>
</svg>
