<svg id="レイヤー_2" data-name="レイヤー 2" xmlns="http://www.w3.org/2000/svg" xmlns:xlink="http://www.w3.org/1999/xlink" viewBox="0 0 550.95 235.95"><defs><style>.cls-1{fill:url(#名称未設定グラデーション_446);}.cls-2{isolation:isolate;}.cls-3{stroke:#fff;fill-rule:evenodd;fill:url(#名称未設定グラデーション_496);}.cls-3,.cls-4{stroke-miterlimit:10;}.cls-4{fill:url(#名称未設定グラデーション_504);stroke:url(#名称未設定グラデーション_10);}</style><linearGradient id="名称未設定グラデーション_446" x1="68.58" y1="359.99" x2="552.99" y2="359.99" gradientUnits="userSpaceOnUse"><stop offset="0.19" stop-color="#1fb800"/><stop offset="0.47" stop-color="#3dc700" stop-opacity="0.96"/><stop offset="0.8" stop-color="#5ad600" stop-opacity="0.92"/><stop offset="1" stop-color="#65dc00" stop-opacity="0.9"/></linearGradient><linearGradient id="名称未設定グラデーション_496" x1="2.54" y1="254.37" x2="95.51" y2="254.37" gradientUnits="userSpaceOnUse"><stop offset="0.18" stop-color="#1fb800"/><stop offset="0.7" stop-color="#71ff6a"/></linearGradient><linearGradient id="名称未設定グラデーション_504" x1="49.02" y1="261.34" x2="135.02" y2="261.34" gradientUnits="userSpaceOnUse"><stop offset="0.29" stop-color="#1fb800"/><stop offset="0.76" stop-color="#71ff6a"/></linearGradient><linearGradient id="名称未設定グラデーション_10" x1="48.52" y1="261.34" x2="135.63" y2="261.34" gradientUnits="userSpaceOnUse"><stop offset="0.01" stop-color="#98d6f6"/><stop offset="0.02" stop-color="#b6e2f9"/><stop offset="0.05" stop-color="#d1edfb"/><stop offset="0.07" stop-color="#e5f5fd"/><stop offset="0.09" stop-color="#f4fbfe"/><stop offset="0.13" stop-color="#fcfeff"/><stop offset="0.18" stop-color="#fff"/><stop offset="0.27" stop-color="#f6fbfe"/><stop offset="0.42" stop-color="#eff8fd"/><stop offset="0.85" stop-color="#edf7fd"/></linearGradient></defs><path d="M236.77,299.42c0,5.72-2.79,10.27-8.37,14s-12.8,5.72-22.06,6.23l-.63-1.52c6.72-1.51,11.92-4,15.72-7.4s5.7-7.24,5.7-11.61c0-8.08-7.86-14.14-23.45-18.18q-.57,8.34-8.37,15.15c-4.82,4.54-11.28,7.91-19.4,10.43a129.15,129.15,0,0,0,3.3,18l3.17,2.69a58.63,58.63,0,0,0-10,8.08,148.93,148.93,0,0,1-4.81-26.59,80.15,80.15,0,0,1-19,2c-5.83,0-10.78-1.18-14.58-3.54-4.06-2.35-6-5.38-6-9.25,0-6.06,4.18-11.11,12.55-15.31,6.72-3.37,15.21-5.73,25.61-7.24.25-10.6,1-21.37,2.16-31.8a120.22,120.22,0,0,0-14.2,1.68L145,250.12l-2-6.56a190,190,0,0,1,25.86-4A242.08,242.08,0,0,1,176.55,203l.89,1c-.77,5.72-1.4,11.61-1.91,17.84l29.29,17.84-2.28,6.89-11.16-3.53c-5.32-.17-11-.17-17.24,0-.38,10.77-.51,21.2-.25,31.47A71.37,71.37,0,0,1,182,274c4.69,0,9.64.51,14.83,1a24.17,24.17,0,0,0-6.21-14l.89-1c7,3.53,10.9,8.92,12,16C225.74,279.9,236.77,287.64,236.77,299.42Zm-69.6,5.22a226.25,226.25,0,0,1-1-25.24q-28.9,4.8-28.91,18.17c0,2.53,1.4,4.55,4.32,6.23s6.59,2.52,11.28,2.52A60.19,60.19,0,0,0,167.17,304.64Zm29.66-25.24a99.2,99.2,0,0,0-15-1.35c-2.41,0-5.07.17-7.86.34.26,8.75.76,16.66,1.4,23.73C189,296.73,196.07,289.16,196.83,279.4ZM198.1,240l-22.95-14.47q-.57,6.81-.76,13.63A132.24,132.24,0,0,1,198.1,240Z" transform="translate(-2.04 -135.09)"/><path d="M326.92,298.41c0,10.1-2.8,18.35-8.5,24.74a66.51,66.51,0,0,1,8.11,7.74l-5.7,4.54a52.89,52.89,0,0,0-7.1-7.9c-7.23,5.89-16.61,8.75-27.89,8.75-6.34,0-11.42-1-15-3.37-3.81-2.19-5.58-4.88-5.58-8.25,0-3.7,2-6.73,6.08-8.91s9.64-3.37,16.74-3.37a47.69,47.69,0,0,1,23.71,6.39,37.19,37.19,0,0,0,5.58-20.36c0-6.73-2.29-12.11-7-16.32a24.76,24.76,0,0,0-17.11-6.39c-8.88,0-18.39,3.7-28.4,10.77l-3.68,4-9-5.21a473.38,473.38,0,0,1,50.46-76.23,89,89,0,0,1-21.18,2.19,74.08,74.08,0,0,1-16.22-1.35l1.39-4.54C271,206.54,277,207,284.57,207a96.73,96.73,0,0,0,18-1.51l2.54-1.86,5.45,6.74c-20.67,28.77-36,53-46.28,72.69,10.91-8.75,21.18-13.29,30.94-13.29,9,0,16.61,2.52,22.57,7.74C323.87,282.6,326.92,289.66,326.92,298.41Zm-18.64,24.74c-6.72-4.38-13.44-6.73-20.16-6.73q-14.07,0-14.08,7.57c0,2.19,1.15,4,3.55,5.89a13.91,13.91,0,0,0,8.25,2.53C294.84,332.41,302.32,329.38,308.28,323.15Z" transform="translate(-2.04 -135.09)"/><path d="M430.12,257.69c-12.43,7.07-22.19,13.13-29.54,18.17.5,7.91.76,16.49.5,25.75a38.4,38.4,0,0,0-8.87,4.38c0-8.59,0-16.5-.26-23.56-13.18,10.77-19.77,21.37-19.77,31.63,0,5.39,1.9,9.76,5.7,13s8.88,4.71,15.09,4.71A49.11,49.11,0,0,0,424.29,321l3.92,4.55c-10,6.9-21.8,10.26-35.24,10.26-9.51,0-17-2-22.32-5.89-5.32-4-8-9.59-8-16.83q0-21.71,28.78-43.41c-1.27-25.92-5.71-48.63-13.32-67.82l1.15-.67A119.54,119.54,0,0,1,395.76,240l28.53,7.41,3.67.33Zm-8.5-7.23-24.85-6.06a176.63,176.63,0,0,1,2.92,19.35C405.77,259.71,413,255.33,421.62,250.46Z" transform="translate(-2.04 -135.09)"/><path d="M543.59,336.44q-22.64-41.9-67.7-62.09a142,142,0,0,1-14.84,6.56l-.63-1.34a134,134,0,0,0,12-6.73A155.35,155.35,0,0,0,456.61,267l.64-1.69A125.44,125.44,0,0,1,477,269.81C498.58,255,514.81,234,525.46,206.7l9.13,8.59-3.05,1.51q-15.4,35.08-49.95,54.52a119.54,119.54,0,0,1,43.74,25.41c11.67,10.6,19.65,22.38,23.84,35.34Z" transform="translate(-2.04 -135.09)"/><path class="cls-1" d="M68.58,357.71l483.24-8.78a1.15,1.15,0,0,1,.69,2.08l-27.86,20" transform="translate(-2.04 -135.09)"/><g id="コンポーネント_1_27" data-name="コンポーネント 1 27"><g id="歩こう徳島-2" class="cls-2"><path d="M203.88,155.08l.65.6-.82,1v16.5a32.57,32.57,0,0,0,4.54-5.74l3.71.38,4.48,2.57a38.82,38.82,0,0,0-6.55-12.61l.43-.28a31,31,0,0,1,10.49,13.82L218,172.83l-6.34-4q-7,10.24-22.5,14.31l-.43-.38a44.92,44.92,0,0,0,14.09-8.63l-1.86.44a20.61,20.61,0,0,1-6.55-3.88l.1-.49a40,40,0,0,0,5.19.65V155.08H184.93l-4.81.82-.54-2.08h9.61A103,103,0,0,0,187,139.73l4-.71-.38,1.15a89,89,0,0,1,1.48,13.65h7.53V135.31l4.75.38-.71,1V146l9.83-1.37,4.43-1.85,1.25,2.45-15.51,2v6.6h14.37l5-1.42.87,2.68Zm-11,4.26a29.54,29.54,0,0,1-10.38,13.71l-.44-.22a41.73,41.73,0,0,0,7.81-16.17l4,2Z" transform="translate(-2.04 -135.09)"/><path d="M282.84,170.64a53.32,53.32,0,0,1-16.55,2.57,55.9,55.9,0,0,1-16-2.35l-5.4,4.21-1.1-1.48,4.54-3.38a55.61,55.61,0,0,1-7.92-3.55l2.84-4.1.38,1.42a47.4,47.4,0,0,0,8.3,3.5L275,150.16c-5.36-3-13.27-4.58-23.87-4.58-1.75,0-3.44,0-5.13.16l-.22-.55a58.63,58.63,0,0,1,13.76-1.63c7,0,12.89,1.14,17.69,3.49l-.6,3.39L253.9,168.08a75.92,75.92,0,0,0,19.82,2.56,71.19,71.19,0,0,0,9.34-.6Z" transform="translate(-2.04 -135.09)"/><path d="M329.09,173.54c-3.6,3.88-8.41,6.66-14.53,8.41l-.22-.44a29.52,29.52,0,0,0,11.53-8.63,20.39,20.39,0,0,0,4.42-12.78,10.27,10.27,0,0,0-2.29-7,8.58,8.58,0,0,0-6.06-3l-9.56,9.61-1.2-1.42,8.68-8.24a27.23,27.23,0,0,0-9.23,2.18l-4.37,3-1.42-2.56a36.1,36.1,0,0,1,16.33-3.88l6-5.63c-5.35.17-10.27-1.74-14.8-5.78l.33-.39a37.12,37.12,0,0,0,13.05,2.41c1.09,0,2.18-.06,3.28-.17l1.42,2.3-7.32,7.37a13.18,13.18,0,0,1,8.08,3.55,10.34,10.34,0,0,1,3.22,8A18.74,18.74,0,0,1,329.09,173.54Z" transform="translate(-2.04 -135.09)"/><path d="M374.25,147.87l-1,.49a57.34,57.34,0,0,1-11.74,15l5.46-3.06,3.66.71-.55,1.2v21.24h-3.88V162.23l-6.49,3.44-1.92-1.36a71.56,71.56,0,0,0,12.62-18.79Zm-.17-9.56-1.09.44c-3,4.15-7.65,7.43-13.87,9.72l-.44-.38a38,38,0,0,0,12-12.29Zm7.1,29.6c.17,5.46-1.2,9.56-4.15,12.18L374.57,178a20.35,20.35,0,0,0,6.18-10.38Zm23.7-24.9H392.05v5.57h7.37l1.48-.87,3.16,1.2-.54.87v13.44H399.7V161H379.54v2.24h-1.8V148.09l1.91.49h8.69V143h-7.65l-4.37.82-.44-2.08h12.46v-6.66l4.47.44-.76,1v5.18h7.59l4.37-1.31Zm-19.71,16.71-.49-9.88h-5.14v9.88Zm16.71,21.35-2.13,1H388c-2.62,0-3.93-1.09-3.93-3.17a5.32,5.32,0,0,1,.06-1l1.47-11.36,4.59.65-.82,1.2L388,178.18c-.22,1.75.54,2.62,2.35,2.62h8.08a44,44,0,0,0-1.42-6.11l.49-.17A15.23,15.23,0,0,1,401.88,181.07Zm-9.94-31.23h-4.75l.49.49-.6.71.44,8.68h3.93Zm5.46,17.85-2.73,1.48a19.65,19.65,0,0,0-7.15-6.83l.38-.32C392.6,163,395.76,164.85,397.4,167.69Zm2.3-17.85h-5.25l.49.49-.65.65-.44,8.74h5.85Zm6.66,26L403.68,177c-.93-2.4-2.84-4.69-5.79-6.93l.49-.22C402.54,171.08,405.16,173.05,406.36,175.89Z" transform="translate(-2.04 -135.09)"/><path d="M464.13,165.18l-.87.82c-1.1,5.08-2.08,10.54-2.84,16.39l-3,.54a21.19,21.19,0,0,1-6.06-4.42l.17-.44a41.47,41.47,0,0,0,5.46,1c.49-4.26,1.2-8.73,2.18-13.32h-21.3l.66.44-.66.76v10.49l8.58-.44-.88-7.7,4.32-.44-.49,1.09,1.09,9.94-3.61.44-.27-2.08-20.48,1.1-.82.49-3.27-.66,1.2-10.37,4.53.76-.76.93-1,7.59,9.45-.55V165.73h-4.37v2h-4V140.33l4.15.77h7.37l.55-5.84,4.48.65-.77.93-.6,4.26h7.37l1.64-.93,3,1.42-.77.93v13.76h-3.6v-1.75H431.09v4.32H456.7l5.19-1.42.87,2.67H431.09v4.37h27.8l1.8-.93Zm-14.25-22.83H431.09v4.7h9.83l5.74-.93.76,2.13-14.47,5h16.93Zm-6.45,6H431.09v4.26Z" transform="translate(-2.04 -135.09)"/></g></g><path class="cls-3" d="M95.48,325.51a9.68,9.68,0,0,1-2.83-.36,19.38,19.38,0,0,0-6-2.95,1,1,0,0,0,0-.17c-3.65-3.14-12.23-5.76-13.79-7.95-4.52-6.36-17.55-8.57-16.33-11.49,2.47-5.9-2.55-4.71-.67-8.9.43-1-.78-9.87-1.65-19.18,1.16-5.62,1.91-9.29,2-9.53a30,30,0,0,0,1-5.07c1.75-.4,3.17-.77,4.1-1-1.35,2.53-4.11,6.65-3.78,8.12.43,1.94.53,4.5,1.22,6.16a1.55,1.55,0,0,0,3-.59c.46,1.32,2.06.68,2.55,0,.55,1.1,2.45-.16,2.63-.69.72-.12,3.18.7,2.45-4.82-.06-1.51.46-3.64.69-7.81s4.91-29.91,5.46-34.11a17.94,17.94,0,0,0-.92-6.58,7.42,7.42,0,0,0,2.77-1.74c-2.58-4.46-3-16.5-14.64-26.67l-.06.35c-4.56-4.46-9.82-8.76-9.45-14.4-.83-2.05,6.11-11,3.89-16.35s-8.82-8.39-13.13-8.69c-4.83-1-16.43,3.42-13.36,12.37.22-3.81,1.41-5.61,2.78-5.81-1.3,1.24-2.92,3.58-1.42,6.51.4.79-3.86,4.37-2.73,5.28.31.25,1.26.46,1.36.68.67,1.59-2.08,2.66,1.89,2.83-2.53.08-2,.94-1.11,1.81.59.59-.69,2.72,1.17,3.27a22.73,22.73,0,0,0,5.47.52c.75,0,2,3.49,1,5.56-3.72,3.15-9.87,16.24-10.69,33.41,0,.79-.19,2.49-.41,4.73-3.71,4.49-10.19,15.11-13.13,17.39-2.05,1.6-4.8,1.88-7.11,4a12.69,12.69,0,0,0-3.83,6.63c-.22.93.43,1.77,1.28.48.12,1.31.29,3,1.55,1.5.62.86,1.22.64,1.53-.48a6.64,6.64,0,0,1,1.74-2.26c.38.19-1.32,2-1.54,2.7s0,1.28,1,.57,2.13-2.83,3.15-3.34c2.58-1.29,4.19-1.58,5.85-4.41.85-1.44,4.51-5,8.11-8.39-1,10-1.85,20.16-1.23,20.16a16.3,16.3,0,0,0,3.1,2c.37,1.27.75,2.43,1.06,3.48,1,3.36-1.26,41.95-1.33,43.22s-2.75,18.15-2.61,19.7,1.95,7.87.94,8.61-3.52,4.64-4.76,5.21a5.36,5.36,0,0,0,.21,4.4,2.4,2.4,0,0,0-.57.46c-.82.2-6.76,5.32-15.68,5.32-2.83,0-6.28,6.71,2.93,7.82,2.92.35,20.61.81,22.33.76s6.38-.86,7.29-1.67A10.07,10.07,0,0,1,37,353.49a19,19,0,0,0-.22-5.69h0a12.51,12.51,0,0,0,2.81-3.8c.28-.5,2.79-12.29,5.77-26.61,7.07,5,15.86,10.38,18.31,11,4,1,5.62,5.09,8.85,6.2a14.67,14.67,0,0,0,3.89-.56c-.23.84,1.22,8.52-3.23,16.22-1.41,2.44,2.67,8.79,8.23,1.37,1.77-2.36,11-17.44,11.83-19S95.73,326.71,95.48,325.51ZM62,252.22c-.9-7.29-2.57-17.87-1.66-19.91.35-.79,1.14-3.12,2.11-6.15a5.79,5.79,0,0,1,.4,1.37C63,229.47,62.19,243.54,62,252.22Z" transform="translate(-2.04 -135.09)"/><path class="cls-4" d="M133.66,348.39c0-.51-.94-4.79-2.81-6.64h-.15c-2.67-6.82-6.9-19.61-7.27-23.23-.64-6.36-11.61-19.86-12.26-26.22-.2-1.95-2.7-11.45-4-18.36.74-.5,1.39-.93,1.8-1.14-.6-3.08.76-8.86-.81-13.16,0-.3,0-.61,0-.92a4,4,0,0,0,1.61-.48c-2.47-4.94-2.29-16.43-1.93-24.21a13.6,13.6,0,0,1,1.47,4.52c-.13,2,4.88,24,3.36,31.38-1.31,6.41-.66,4.89,1.63,10.47.47,1.15,1.11,2.54,1.92,1.78.49,4,2.85,2.8,2.85,1.09,1.43,0,1.29-.2,1.79-1.72a1.83,1.83,0,0,0,1.41-2c2.74-2.39-2.74-9.88-3-12.9-.68-6.71-1.84-29.94-3.29-33.22a71.94,71.94,0,0,1-2.32-8.22,5.06,5.06,0,0,0,1.55-.63c-1.54-3.39-2.34-10-5.36-22,0-.43,0-.86,0-1.34-.15-3-3.61-8.22-4.42-13.44a3,3,0,0,0,1.5,1.32,2.85,2.85,0,0,1-1.43-2,12.72,12.72,0,0,1,1.53.74,2.16,2.16,0,0,1,1.24,1.65,2.34,2.34,0,0,0-1-2,9.94,9.94,0,0,0-1.14-.82c2.37.82,3.73-1.55,3.73-3.57,0-2.28,1.48-2.33.91-3.79s1-.14.14-3.79c.12.24.26.47.36.72a4.12,4.12,0,0,1,.31,1.66,1.72,1.72,0,0,1-.81,1.41,1.79,1.79,0,0,0,1-1.39,4.54,4.54,0,0,0-.13-1.8,12.79,12.79,0,0,0-1.4-3.16,14.87,14.87,0,0,1-.72-5.24c.17-3.15-4.94-4.66-7.1-4.6h-.53a8.77,8.77,0,0,0-2-.39,2.59,2.59,0,0,0-1.58.39,2.88,2.88,0,0,0-1,1.28,2.24,2.24,0,0,1,2.31-1.29,2.91,2.91,0,0,0-2.31,1.29c-3.22-.53-11.36,2.52-12.14,9.36a6.36,6.36,0,0,0-.14.76,3.91,3.91,0,0,0,.14,1.63,1.64,1.64,0,0,0,1.1,1.1,1.77,1.77,0,0,1-1-1.83,7.83,7.83,0,0,1,.22-.93,3.45,3.45,0,0,0,.74,2.76,3.21,3.21,0,0,1-.35-2.71,6.81,6.81,0,0,1,.26-.76,7.65,7.65,0,0,0,.09,3.47,9.1,9.1,0,0,1,.45,1.88c0,2-1.63,3.51-1.74,4.48-.08.73.33,1.09,1.18,1.24s.13,1.2.06,1.39c-.15.44.44.77,1,.94-.93,1.69.5,1,.7,1.86,0,.23-.48,1.63.7,2.39.75.48,2.66.27,5-.47,1-.33,1.91,1,2.13,2.65a3.83,3.83,0,0,1-.43,2.79c-4.4,5.18-7,11.82-11.38,16.58a6.79,6.79,0,0,0-1.75,5.88,129.15,129.15,0,0,0-.61,15.2c-3.92,7.49-10.35,21.55-12.38,23.8-2.42,2.68-4.06,4.57-4.64,6.16s-.49,2.76-1,3.87c-.58,1.34-.49,2.13.24,2a27.88,27.88,0,0,0-.77,2.73c-.29,1.3.24,2.49,1.3,1.2.49.94.73,1.83,2,.44.82,1.05,1.16.9,1.93-.05s1.79-5.06,2.23-5.21-2,5.16-.44,4.62,1.94-5.12,2.67-5.86,1.45-6.14,2-7.75c.77-2.17,4.67-7.64,7-11.21.08,5.22,0,9.14-.41,10l2.11,0c-1.64,4.18-2.36,10-4.17,13.73.55.2,1.1.44,1.65.7-3.39,12.39-4,23.71-5,27.41-1.36,5,1.16,7.75,0,13.51s-5.42,29.59-9.1,32.57l-1,.76,0-.06a11.17,11.17,0,0,0-2.29,1.46c-.63.16-5.24,4.24-12.16,4.24-2.19,0-4.87,5.33,2.27,6.21,2.27.28,16,.65,17.32.61s5-.68,5.65-1.33a7.93,7.93,0,0,1-.85-2.1,16,16,0,0,0-.41-5.56c.11-5.55,3.26-11.19,4.94-13.69,9.56-14.11,5.82-28.14,8.79-35.95A101.83,101.83,0,0,1,95,289c2,3.26,4.24,9,6.84,14.57.82,1.77,3.9,4.43,5.29,6.22,2.51,3.23,8,16.68,14.07,29.26a10,10,0,0,1,1,3.57,1,1,0,0,0-.46-.36,10.9,10.9,0,0,0-1.84,2c-.57.32-4,5.48-10.68,7.32-2.11.58-3.35,6.45,3.76,5.4,2.26-.33,15.61-3.62,16.89-4s4.6-2,5.12-2.79C134.5,349.54,133.73,348.81,133.66,348.39Z" transform="translate(-2.04 -135.09)"/></svg>